<svg xmlns="http://www.w3.org/2000/svg" viewBox="0 0 64 64">
  <rect width="64" height="64" rx="14" fill="#0a0a0c"/>
  <rect x="1.5" y="1.5" width="61" height="61" rx="12.5" fill="none" stroke="#232327" stroke-width="1.5"/>
  <path d="M32 8c2 8-6 12-6 20 0-4-4-6-4-6-4 6-6 10-6 16 0 9 7 16 16 16s16-7 16-16c0-4-1-8-4-12 0 0 0 4-3 6 1-10-7-14-9-24z" fill="#e8b84b"/>
  <path d="M32 30c1 5-4 7-4 12 0 4 2 8 4 8s4-4 4-8c0-5-5-7-4-12z" fill="#0a0a0c"/>
  <path d="M32 36c.5 3-2 4-2 7 0 2 1 4 2 4s2-2 2-4c0-3-2.5-4-2-7z" fill="#c49a30"/>
</svg>
